<mxfile host="app.diagrams.net" modified="2024-03-26T10:31:56.725Z" agent="Mozilla/5.0 (Windows NT 10.0; Win64; x64) AppleWebKit/537.36 (KHTML, like Gecko) Chrome/123.0.0.0 Safari/537.36" etag="_mUNdjiw2kGyKxajGoIR" version="24.1.0" type="device">
  <diagram name="Page-1" id="58cdce13-f638-feb5-8d6f-7d28b1aa9fa0">
    <mxGraphModel dx="1613" dy="706" grid="1" gridSize="10" guides="1" tooltips="1" connect="1" arrows="1" fold="1" page="1" pageScale="1" pageWidth="1100" pageHeight="850" background="none" math="0" shadow="0">
      <root>
        <mxCell id="0" />
        <mxCell id="1" parent="0" />
        <mxCell id="hn9e4UP-f08yugh81iEx-1" value="" style="ellipse;html=1;shape=startState;fillColor=#000000;strokeColor=#ff0000;" parent="1" vertex="1">
          <mxGeometry x="50" y="210" width="30" height="30" as="geometry" />
        </mxCell>
        <mxCell id="hn9e4UP-f08yugh81iEx-2" value="" style="edgeStyle=orthogonalEdgeStyle;html=1;verticalAlign=bottom;endArrow=open;endSize=8;strokeColor=#ff0000;rounded=0;exitX=1;exitY=0.5;exitDx=0;exitDy=0;" parent="1" source="hn9e4UP-f08yugh81iEx-1" edge="1">
          <mxGeometry relative="1" as="geometry">
            <mxPoint x="130" y="225" as="targetPoint" />
            <mxPoint x="65" y="240" as="sourcePoint" />
          </mxGeometry>
        </mxCell>
        <mxCell id="hn9e4UP-f08yugh81iEx-3" value="" style="rhombus;whiteSpace=wrap;html=1;fontColor=#000000;fillColor=#ffffc0;strokeColor=#ff0000;" parent="1" vertex="1">
          <mxGeometry x="130" y="203.75" width="60" height="42.5" as="geometry" />
        </mxCell>
        <mxCell id="hn9e4UP-f08yugh81iEx-4" value="New user" style="edgeStyle=orthogonalEdgeStyle;html=1;align=left;verticalAlign=bottom;endArrow=open;endSize=8;strokeColor=#ff0000;rounded=0;exitX=1;exitY=0.5;exitDx=0;exitDy=0;entryX=0;entryY=0.5;entryDx=0;entryDy=0;" parent="1" source="hn9e4UP-f08yugh81iEx-3" target="hn9e4UP-f08yugh81iEx-8" edge="1">
          <mxGeometry x="-1" relative="1" as="geometry">
            <mxPoint x="290" y="213.75" as="targetPoint" />
            <mxPoint x="199.85882352941167" y="213.85000000000002" as="sourcePoint" />
          </mxGeometry>
        </mxCell>
        <mxCell id="hn9e4UP-f08yugh81iEx-5" value="Registered" style="edgeStyle=orthogonalEdgeStyle;html=1;align=left;verticalAlign=top;endArrow=open;endSize=8;strokeColor=#ff0000;rounded=0;entryX=0;entryY=0.5;entryDx=0;entryDy=0;exitX=0.5;exitY=1;exitDx=0;exitDy=0;" parent="1" source="hn9e4UP-f08yugh81iEx-3" target="hn9e4UP-f08yugh81iEx-9" edge="1">
          <mxGeometry x="-0.1189" y="25" relative="1" as="geometry">
            <mxPoint x="279.95" y="285.03" as="targetPoint" />
            <mxPoint x="159.99761904761903" y="246.24626984126988" as="sourcePoint" />
            <Array as="points">
              <mxPoint x="160" y="285" />
              <mxPoint x="290" y="285" />
            </Array>
            <mxPoint as="offset" />
          </mxGeometry>
        </mxCell>
        <mxCell id="hn9e4UP-f08yugh81iEx-8" value="Register&lt;span style=&quot;color: rgba(0, 0, 0, 0); font-family: monospace; font-size: 0px; text-align: start; text-wrap: nowrap;&quot;&gt;%3CmxGraphModel%3E%3Croot%3E%3CmxCell%20id%3D%220%22%2F%3E%3CmxCell%20id%3D%221%22%20parent%3D%220%22%2F%3E%3CmxCell%20id%3D%222%22%20value%3D%22Browse%20Items%22%20style%3D%22rounded%3D1%3BwhiteSpace%3Dwrap%3Bhtml%3D1%3BfillColor%3D%23ffffc0%3BstrokeColor%3D%23ff0000%3BfontColor%3D%23000000%3B%22%20vertex%3D%221%22%20parent%3D%221%22%3E%3CmxGeometry%20x%3D%22220%22%20y%3D%22110%22%20width%3D%2290%22%20height%3D%2230%22%20as%3D%22geometry%22%2F%3E%3C%2FmxCell%3E%3C%2Froot%3E%3C%2FmxGraphModel%3E&lt;/span&gt;" style="rounded=1;whiteSpace=wrap;html=1;fillColor=#ffffc0;strokeColor=#ff0000;fontColor=#000000;" parent="1" vertex="1">
          <mxGeometry x="300" y="210" width="90" height="30" as="geometry" />
        </mxCell>
        <mxCell id="hn9e4UP-f08yugh81iEx-9" value="Log in" style="rounded=1;whiteSpace=wrap;html=1;fillColor=#ffffc0;strokeColor=#ff0000;fontColor=#000000;" parent="1" vertex="1">
          <mxGeometry x="300" y="270" width="90" height="30" as="geometry" />
        </mxCell>
        <mxCell id="hn9e4UP-f08yugh81iEx-13" value="" style="edgeStyle=orthogonalEdgeStyle;html=1;align=left;verticalAlign=bottom;endArrow=open;endSize=8;strokeColor=#ff0000;rounded=0;entryX=0;entryY=0.5;entryDx=0;entryDy=0;exitX=1;exitY=0.5;exitDx=0;exitDy=0;" parent="1" source="hn9e4UP-f08yugh81iEx-8" target="HdDQlEBCYO6yjAjvUNcA-2" edge="1">
          <mxGeometry x="-1" relative="1" as="geometry">
            <mxPoint x="460" y="250" as="targetPoint" />
            <mxPoint x="400" y="224.6" as="sourcePoint" />
          </mxGeometry>
        </mxCell>
        <mxCell id="hn9e4UP-f08yugh81iEx-14" value="" style="edgeStyle=orthogonalEdgeStyle;html=1;align=left;verticalAlign=bottom;endArrow=open;endSize=8;strokeColor=#ff0000;rounded=0;entryX=0;entryY=0.5;entryDx=0;entryDy=0;exitX=1;exitY=0.5;exitDx=0;exitDy=0;" parent="1" source="hn9e4UP-f08yugh81iEx-9" target="HdDQlEBCYO6yjAjvUNcA-2" edge="1">
          <mxGeometry x="-1" relative="1" as="geometry">
            <mxPoint x="460" y="250" as="targetPoint" />
            <mxPoint x="400" y="284.6" as="sourcePoint" />
          </mxGeometry>
        </mxCell>
        <mxCell id="hn9e4UP-f08yugh81iEx-45" value="" style="ellipse;html=1;shape=endState;fillColor=#000000;strokeColor=#ff0000;" parent="1" vertex="1">
          <mxGeometry x="1020" y="720" width="30" height="30" as="geometry" />
        </mxCell>
        <mxCell id="hn9e4UP-f08yugh81iEx-60" value="Search" style="text;html=1;align=center;verticalAlign=middle;resizable=0;points=[];autosize=1;strokeColor=none;fillColor=none;" parent="1" vertex="1">
          <mxGeometry x="520" y="190" width="60" height="30" as="geometry" />
        </mxCell>
        <mxCell id="HdDQlEBCYO6yjAjvUNcA-2" value="" style="rhombus;whiteSpace=wrap;html=1;fontColor=#000000;fillColor=#ffffc0;strokeColor=#ff0000;" parent="1" vertex="1">
          <mxGeometry x="460" y="240" width="80" height="50" as="geometry" />
        </mxCell>
        <mxCell id="HdDQlEBCYO6yjAjvUNcA-3" value="" style="edgeStyle=orthogonalEdgeStyle;html=1;align=left;verticalAlign=bottom;endArrow=open;endSize=8;strokeColor=#ff0000;rounded=0;exitX=1;exitY=0;exitDx=0;exitDy=0;entryX=0;entryY=0.5;entryDx=0;entryDy=0;" parent="1" source="HdDQlEBCYO6yjAjvUNcA-2" target="HdDQlEBCYO6yjAjvUNcA-4" edge="1">
          <mxGeometry x="-1" relative="1" as="geometry">
            <mxPoint x="520" y="170" as="targetPoint" />
            <mxPoint x="500" y="211.25" as="sourcePoint" />
            <Array as="points">
              <mxPoint x="520" y="155" />
            </Array>
          </mxGeometry>
        </mxCell>
        <mxCell id="HdDQlEBCYO6yjAjvUNcA-4" value="Search items" style="rounded=1;whiteSpace=wrap;html=1;fillColor=#ffffc0;strokeColor=#ff0000;fontColor=#000000;" parent="1" vertex="1">
          <mxGeometry x="570" y="140" width="90" height="30" as="geometry" />
        </mxCell>
        <mxCell id="HdDQlEBCYO6yjAjvUNcA-5" value="" style="rhombus;whiteSpace=wrap;html=1;fontColor=#000000;fillColor=#ffffc0;strokeColor=#ff0000;" parent="1" vertex="1">
          <mxGeometry x="710" y="135" width="80" height="40" as="geometry" />
        </mxCell>
        <mxCell id="HdDQlEBCYO6yjAjvUNcA-6" value="" style="edgeStyle=orthogonalEdgeStyle;html=1;align=left;verticalAlign=bottom;endArrow=open;endSize=8;strokeColor=#ff0000;rounded=0;exitX=1;exitY=0.5;exitDx=0;exitDy=0;entryX=0;entryY=0.5;entryDx=0;entryDy=0;" parent="1" source="HdDQlEBCYO6yjAjvUNcA-4" target="HdDQlEBCYO6yjAjvUNcA-5" edge="1">
          <mxGeometry x="-1" relative="1" as="geometry">
            <mxPoint x="720" y="185" as="targetPoint" />
            <mxPoint x="690" y="280" as="sourcePoint" />
            <Array as="points">
              <mxPoint x="670" y="155" />
              <mxPoint x="670" y="155" />
            </Array>
          </mxGeometry>
        </mxCell>
        <mxCell id="HdDQlEBCYO6yjAjvUNcA-7" value="" style="edgeStyle=orthogonalEdgeStyle;html=1;verticalAlign=bottom;endArrow=open;endSize=8;strokeColor=#ff0000;rounded=0;exitX=1;exitY=0.5;exitDx=0;exitDy=0;entryX=0;entryY=0.5;entryDx=0;entryDy=0;" parent="1" source="HdDQlEBCYO6yjAjvUNcA-5" target="HdDQlEBCYO6yjAjvUNcA-11" edge="1">
          <mxGeometry relative="1" as="geometry">
            <mxPoint x="830" y="155" as="targetPoint" />
            <mxPoint x="90" y="235" as="sourcePoint" />
          </mxGeometry>
        </mxCell>
        <mxCell id="HdDQlEBCYO6yjAjvUNcA-8" value="Found" style="text;html=1;align=center;verticalAlign=middle;resizable=0;points=[];autosize=1;strokeColor=none;fillColor=none;" parent="1" vertex="1">
          <mxGeometry x="780" y="130" width="60" height="30" as="geometry" />
        </mxCell>
        <mxCell id="HdDQlEBCYO6yjAjvUNcA-9" value="" style="edgeStyle=orthogonalEdgeStyle;html=1;verticalAlign=bottom;endArrow=open;endSize=8;strokeColor=#ff0000;rounded=0;exitX=0.5;exitY=1;exitDx=0;exitDy=0;entryX=1;entryY=0.5;entryDx=0;entryDy=0;" parent="1" source="HdDQlEBCYO6yjAjvUNcA-5" target="HdDQlEBCYO6yjAjvUNcA-2" edge="1">
          <mxGeometry relative="1" as="geometry">
            <mxPoint x="840" y="165" as="targetPoint" />
            <mxPoint x="800" y="165" as="sourcePoint" />
          </mxGeometry>
        </mxCell>
        <mxCell id="HdDQlEBCYO6yjAjvUNcA-10" value="Not found" style="text;html=1;align=center;verticalAlign=middle;resizable=0;points=[];autosize=1;strokeColor=none;fillColor=none;" parent="1" vertex="1">
          <mxGeometry x="670" y="240" width="80" height="30" as="geometry" />
        </mxCell>
        <mxCell id="HdDQlEBCYO6yjAjvUNcA-21" style="edgeStyle=orthogonalEdgeStyle;rounded=0;orthogonalLoop=1;jettySize=auto;html=1;exitX=1;exitY=0.5;exitDx=0;exitDy=0;entryX=0;entryY=0.5;entryDx=0;entryDy=0;strokeColor=#FF3333;" parent="1" source="HdDQlEBCYO6yjAjvUNcA-11" target="HdDQlEBCYO6yjAjvUNcA-20" edge="1">
          <mxGeometry relative="1" as="geometry" />
        </mxCell>
        <mxCell id="HdDQlEBCYO6yjAjvUNcA-11" value="View item" style="rounded=1;whiteSpace=wrap;html=1;fillColor=#ffffc0;strokeColor=#ff0000;fontColor=#000000;" parent="1" vertex="1">
          <mxGeometry x="840" y="220" width="90" height="30" as="geometry" />
        </mxCell>
        <mxCell id="HdDQlEBCYO6yjAjvUNcA-14" value="Browse items" style="rounded=1;whiteSpace=wrap;html=1;fillColor=#ffffc0;strokeColor=#ff0000;fontColor=#000000;" parent="1" vertex="1">
          <mxGeometry x="600" y="300" width="90" height="30" as="geometry" />
        </mxCell>
        <mxCell id="HdDQlEBCYO6yjAjvUNcA-15" value="" style="edgeStyle=orthogonalEdgeStyle;html=1;align=left;verticalAlign=bottom;endArrow=open;endSize=8;strokeColor=#ff0000;rounded=0;exitX=1;exitY=1;exitDx=0;exitDy=0;entryX=0;entryY=0.5;entryDx=0;entryDy=0;" parent="1" source="HdDQlEBCYO6yjAjvUNcA-2" target="HdDQlEBCYO6yjAjvUNcA-14" edge="1">
          <mxGeometry x="-1" y="32" relative="1" as="geometry">
            <mxPoint x="720" y="380" as="targetPoint" />
            <mxPoint x="610" y="380" as="sourcePoint" />
            <mxPoint x="-2" y="-10" as="offset" />
          </mxGeometry>
        </mxCell>
        <mxCell id="HdDQlEBCYO6yjAjvUNcA-16" value="Browse" style="text;html=1;align=center;verticalAlign=middle;resizable=0;points=[];autosize=1;strokeColor=none;fillColor=none;" parent="1" vertex="1">
          <mxGeometry x="510" y="280" width="60" height="30" as="geometry" />
        </mxCell>
        <mxCell id="HdDQlEBCYO6yjAjvUNcA-19" value="" style="endArrow=open;endFill=1;endSize=12;html=1;rounded=0;exitX=1;exitY=0.5;exitDx=0;exitDy=0;entryX=0;entryY=0.5;entryDx=0;entryDy=0;strokeColor=#FF3333;" parent="1" source="HdDQlEBCYO6yjAjvUNcA-14" target="HdDQlEBCYO6yjAjvUNcA-11" edge="1">
          <mxGeometry width="160" relative="1" as="geometry">
            <mxPoint x="750" y="314.76" as="sourcePoint" />
            <mxPoint x="910" y="314.76" as="targetPoint" />
            <Array as="points">
              <mxPoint x="800" y="315" />
              <mxPoint x="800" y="235" />
            </Array>
          </mxGeometry>
        </mxCell>
        <mxCell id="HdDQlEBCYO6yjAjvUNcA-25" style="edgeStyle=orthogonalEdgeStyle;rounded=0;orthogonalLoop=1;jettySize=auto;html=1;entryX=0.5;entryY=0;entryDx=0;entryDy=0;strokeColor=#FF3333;" parent="1" source="HdDQlEBCYO6yjAjvUNcA-20" target="HdDQlEBCYO6yjAjvUNcA-24" edge="1">
          <mxGeometry relative="1" as="geometry" />
        </mxCell>
        <mxCell id="HdDQlEBCYO6yjAjvUNcA-20" value="Make decision" style="rhombus;whiteSpace=wrap;html=1;fontColor=#000000;fillColor=#ffffc0;strokeColor=#ff0000;" parent="1" vertex="1">
          <mxGeometry x="980" y="210" width="110" height="50" as="geometry" />
        </mxCell>
        <mxCell id="HdDQlEBCYO6yjAjvUNcA-23" value="Continue to browse/search" style="text;html=1;align=center;verticalAlign=middle;resizable=0;points=[];autosize=1;strokeColor=none;fillColor=none;" parent="1" vertex="1">
          <mxGeometry x="1030" y="150" width="170" height="30" as="geometry" />
        </mxCell>
        <mxCell id="HdDQlEBCYO6yjAjvUNcA-24" value="Add to cart" style="rounded=1;whiteSpace=wrap;html=1;fillColor=#ffffc0;strokeColor=#ff0000;fontColor=#000000;" parent="1" vertex="1">
          <mxGeometry x="990" y="310" width="90" height="30" as="geometry" />
        </mxCell>
        <mxCell id="HdDQlEBCYO6yjAjvUNcA-26" value="" style="rhombus;whiteSpace=wrap;html=1;fontColor=#000000;fillColor=#ffffc0;strokeColor=#ff0000;" parent="1" vertex="1">
          <mxGeometry x="995" y="370" width="80" height="40" as="geometry" />
        </mxCell>
        <mxCell id="HdDQlEBCYO6yjAjvUNcA-27" style="edgeStyle=orthogonalEdgeStyle;rounded=0;orthogonalLoop=1;jettySize=auto;html=1;entryX=0.5;entryY=0;entryDx=0;entryDy=0;strokeColor=#FF3333;exitX=0.5;exitY=1;exitDx=0;exitDy=0;" parent="1" source="HdDQlEBCYO6yjAjvUNcA-24" target="HdDQlEBCYO6yjAjvUNcA-26" edge="1">
          <mxGeometry relative="1" as="geometry">
            <mxPoint x="1060" y="350" as="sourcePoint" />
            <mxPoint x="1060" y="400" as="targetPoint" />
          </mxGeometry>
        </mxCell>
        <mxCell id="HdDQlEBCYO6yjAjvUNcA-28" style="edgeStyle=orthogonalEdgeStyle;rounded=0;orthogonalLoop=1;jettySize=auto;html=1;entryX=1;entryY=0.5;entryDx=0;entryDy=0;strokeColor=#FF3333;exitX=0;exitY=0.5;exitDx=0;exitDy=0;" parent="1" source="HdDQlEBCYO6yjAjvUNcA-26" target="HdDQlEBCYO6yjAjvUNcA-39" edge="1">
          <mxGeometry relative="1" as="geometry">
            <mxPoint x="1034.71" y="425" as="sourcePoint" />
            <mxPoint x="1034.71" y="470" as="targetPoint" />
          </mxGeometry>
        </mxCell>
        <mxCell id="HdDQlEBCYO6yjAjvUNcA-29" value="Continue to browse/search" style="text;html=1;align=center;verticalAlign=middle;resizable=0;points=[];autosize=1;strokeColor=none;fillColor=none;" parent="1" vertex="1">
          <mxGeometry x="840" y="355" width="170" height="30" as="geometry" />
        </mxCell>
        <mxCell id="HdDQlEBCYO6yjAjvUNcA-31" value="View cart" style="rounded=1;whiteSpace=wrap;html=1;fillColor=#ffffc0;strokeColor=#ff0000;fontColor=#000000;" parent="1" vertex="1">
          <mxGeometry x="990" y="475" width="90" height="30" as="geometry" />
        </mxCell>
        <mxCell id="HdDQlEBCYO6yjAjvUNcA-32" style="edgeStyle=orthogonalEdgeStyle;rounded=0;orthogonalLoop=1;jettySize=auto;html=1;entryX=0.5;entryY=0;entryDx=0;entryDy=0;strokeColor=#FF3333;exitX=0.5;exitY=1;exitDx=0;exitDy=0;" parent="1" source="HdDQlEBCYO6yjAjvUNcA-26" target="HdDQlEBCYO6yjAjvUNcA-31" edge="1">
          <mxGeometry relative="1" as="geometry">
            <mxPoint x="1045" y="335" as="sourcePoint" />
            <mxPoint x="1045" y="380" as="targetPoint" />
          </mxGeometry>
        </mxCell>
        <mxCell id="HdDQlEBCYO6yjAjvUNcA-34" value="Proceed to cart" style="text;html=1;align=center;verticalAlign=middle;resizable=0;points=[];autosize=1;strokeColor=none;fillColor=none;" parent="1" vertex="1">
          <mxGeometry x="1030" y="425" width="100" height="30" as="geometry" />
        </mxCell>
        <mxCell id="HdDQlEBCYO6yjAjvUNcA-51" style="edgeStyle=orthogonalEdgeStyle;rounded=0;orthogonalLoop=1;jettySize=auto;html=1;entryX=0.5;entryY=1;entryDx=0;entryDy=0;strokeColor=#FF3333;" parent="1" source="HdDQlEBCYO6yjAjvUNcA-37" target="HdDQlEBCYO6yjAjvUNcA-50" edge="1">
          <mxGeometry relative="1" as="geometry" />
        </mxCell>
        <mxCell id="HdDQlEBCYO6yjAjvUNcA-54" style="edgeStyle=orthogonalEdgeStyle;rounded=0;orthogonalLoop=1;jettySize=auto;html=1;entryX=0.5;entryY=1;entryDx=0;entryDy=0;strokeColor=#FF3333;" parent="1" source="HdDQlEBCYO6yjAjvUNcA-37" target="HdDQlEBCYO6yjAjvUNcA-39" edge="1">
          <mxGeometry relative="1" as="geometry" />
        </mxCell>
        <mxCell id="HdDQlEBCYO6yjAjvUNcA-59" style="edgeStyle=orthogonalEdgeStyle;rounded=0;orthogonalLoop=1;jettySize=auto;html=1;strokeColor=#FF3333;" parent="1" source="HdDQlEBCYO6yjAjvUNcA-37" target="HdDQlEBCYO6yjAjvUNcA-58" edge="1">
          <mxGeometry relative="1" as="geometry" />
        </mxCell>
        <mxCell id="HdDQlEBCYO6yjAjvUNcA-37" value="" style="rhombus;whiteSpace=wrap;html=1;fontColor=#000000;fillColor=#ffffc0;strokeColor=#ff0000;" parent="1" vertex="1">
          <mxGeometry x="995" y="555" width="80" height="40" as="geometry" />
        </mxCell>
        <mxCell id="HdDQlEBCYO6yjAjvUNcA-38" style="edgeStyle=orthogonalEdgeStyle;rounded=0;orthogonalLoop=1;jettySize=auto;html=1;entryX=0.5;entryY=0;entryDx=0;entryDy=0;strokeColor=#FF3333;exitX=0.5;exitY=1;exitDx=0;exitDy=0;" parent="1" source="HdDQlEBCYO6yjAjvUNcA-31" target="HdDQlEBCYO6yjAjvUNcA-37" edge="1">
          <mxGeometry relative="1" as="geometry">
            <mxPoint x="1070" y="520" as="sourcePoint" />
            <mxPoint x="1070" y="585" as="targetPoint" />
          </mxGeometry>
        </mxCell>
        <mxCell id="HdDQlEBCYO6yjAjvUNcA-39" value="A" style="ellipse;whiteSpace=wrap;html=1;aspect=fixed;strokeColor=#FF3333;" parent="1" vertex="1">
          <mxGeometry x="820" y="375" width="30" height="30" as="geometry" />
        </mxCell>
        <mxCell id="HdDQlEBCYO6yjAjvUNcA-40" value="A" style="ellipse;whiteSpace=wrap;html=1;aspect=fixed;strokeColor=#FF3333;" parent="1" vertex="1">
          <mxGeometry x="1020" y="105" width="30" height="30" as="geometry" />
        </mxCell>
        <mxCell id="HdDQlEBCYO6yjAjvUNcA-41" style="edgeStyle=orthogonalEdgeStyle;rounded=0;orthogonalLoop=1;jettySize=auto;html=1;entryX=0.5;entryY=1;entryDx=0;entryDy=0;strokeColor=#FF3333;exitX=0.5;exitY=0;exitDx=0;exitDy=0;" parent="1" source="HdDQlEBCYO6yjAjvUNcA-20" target="HdDQlEBCYO6yjAjvUNcA-40" edge="1">
          <mxGeometry relative="1" as="geometry">
            <mxPoint x="1005" y="415" as="sourcePoint" />
            <mxPoint x="810" y="415" as="targetPoint" />
          </mxGeometry>
        </mxCell>
        <mxCell id="HdDQlEBCYO6yjAjvUNcA-42" value="A" style="ellipse;whiteSpace=wrap;html=1;aspect=fixed;strokeColor=#FF3333;" parent="1" vertex="1">
          <mxGeometry x="440" y="340" width="30" height="30" as="geometry" />
        </mxCell>
        <mxCell id="HdDQlEBCYO6yjAjvUNcA-43" value="" style="edgeStyle=orthogonalEdgeStyle;html=1;align=left;verticalAlign=bottom;endArrow=open;endSize=8;strokeColor=#ff0000;rounded=0;exitX=1;exitY=0.5;exitDx=0;exitDy=0;entryX=0.5;entryY=1;entryDx=0;entryDy=0;" parent="1" source="HdDQlEBCYO6yjAjvUNcA-42" target="HdDQlEBCYO6yjAjvUNcA-2" edge="1">
          <mxGeometry x="-1" y="32" relative="1" as="geometry">
            <mxPoint x="610" y="325" as="targetPoint" />
            <mxPoint x="530" y="288" as="sourcePoint" />
            <mxPoint x="-2" y="-10" as="offset" />
          </mxGeometry>
        </mxCell>
        <mxCell id="HdDQlEBCYO6yjAjvUNcA-44" value="Shopping cart can be viewed&lt;span style=&quot;background-color: initial;&quot;&gt;&amp;nbsp;at any time&lt;/span&gt;" style="rounded=0;whiteSpace=wrap;html=1;strokeColor=#FF3333;" parent="1" vertex="1">
          <mxGeometry x="150" y="375" width="120" height="60" as="geometry" />
        </mxCell>
        <mxCell id="HdDQlEBCYO6yjAjvUNcA-45" value="" style="edgeStyle=orthogonalEdgeStyle;html=1;align=left;verticalAlign=bottom;endArrow=open;endSize=8;strokeColor=#ff0000;rounded=0;entryX=0;entryY=0.5;entryDx=0;entryDy=0;exitX=1;exitY=0.5;exitDx=0;exitDy=0;" parent="1" source="HdDQlEBCYO6yjAjvUNcA-56" target="HdDQlEBCYO6yjAjvUNcA-46" edge="1">
          <mxGeometry x="-1" y="32" relative="1" as="geometry">
            <mxPoint x="505" y="450" as="targetPoint" />
            <mxPoint x="440" y="520" as="sourcePoint" />
            <mxPoint x="-2" y="-10" as="offset" />
          </mxGeometry>
        </mxCell>
        <mxCell id="HdDQlEBCYO6yjAjvUNcA-46" value="B" style="ellipse;whiteSpace=wrap;html=1;aspect=fixed;strokeColor=#FF3333;" parent="1" vertex="1">
          <mxGeometry x="440" y="460" width="30" height="30" as="geometry" />
        </mxCell>
        <mxCell id="HdDQlEBCYO6yjAjvUNcA-49" style="edgeStyle=orthogonalEdgeStyle;rounded=0;orthogonalLoop=1;jettySize=auto;html=1;entryX=0;entryY=0.5;entryDx=0;entryDy=0;strokeColor=#FF3333;" parent="1" source="HdDQlEBCYO6yjAjvUNcA-48" target="HdDQlEBCYO6yjAjvUNcA-31" edge="1">
          <mxGeometry relative="1" as="geometry" />
        </mxCell>
        <mxCell id="HdDQlEBCYO6yjAjvUNcA-48" value="B" style="ellipse;whiteSpace=wrap;html=1;aspect=fixed;strokeColor=#FF3333;" parent="1" vertex="1">
          <mxGeometry x="900" y="475" width="30" height="30" as="geometry" />
        </mxCell>
        <mxCell id="HdDQlEBCYO6yjAjvUNcA-52" style="edgeStyle=orthogonalEdgeStyle;rounded=0;orthogonalLoop=1;jettySize=auto;html=1;entryX=1;entryY=0.5;entryDx=0;entryDy=0;strokeColor=#FF3333;" parent="1" source="HdDQlEBCYO6yjAjvUNcA-50" target="HdDQlEBCYO6yjAjvUNcA-31" edge="1">
          <mxGeometry relative="1" as="geometry" />
        </mxCell>
        <mxCell id="HdDQlEBCYO6yjAjvUNcA-50" value="Update cart" style="rounded=1;whiteSpace=wrap;html=1;fillColor=#ffffc0;strokeColor=#ff0000;fontColor=#000000;" parent="1" vertex="1">
          <mxGeometry x="1130" y="475" width="90" height="30" as="geometry" />
        </mxCell>
        <mxCell id="HdDQlEBCYO6yjAjvUNcA-53" value="Need update" style="text;html=1;align=center;verticalAlign=middle;resizable=0;points=[];autosize=1;strokeColor=none;fillColor=none;" parent="1" vertex="1">
          <mxGeometry x="1080" y="545" width="90" height="30" as="geometry" />
        </mxCell>
        <mxCell id="HdDQlEBCYO6yjAjvUNcA-55" value="Not done shopping" style="text;html=1;align=center;verticalAlign=middle;resizable=0;points=[];autosize=1;strokeColor=none;fillColor=none;" parent="1" vertex="1">
          <mxGeometry x="835" y="545" width="120" height="30" as="geometry" />
        </mxCell>
        <mxCell id="HdDQlEBCYO6yjAjvUNcA-56" value="Check cart" style="rounded=1;whiteSpace=wrap;html=1;strokeColor=#FF3333;" parent="1" vertex="1">
          <mxGeometry x="240" y="460" width="100" height="30" as="geometry" />
        </mxCell>
        <mxCell id="HdDQlEBCYO6yjAjvUNcA-57" value="" style="endArrow=none;dashed=1;html=1;dashPattern=1 3;strokeWidth=2;rounded=0;exitX=0.75;exitY=1;exitDx=0;exitDy=0;entryX=0.5;entryY=0;entryDx=0;entryDy=0;" parent="1" source="HdDQlEBCYO6yjAjvUNcA-44" target="HdDQlEBCYO6yjAjvUNcA-56" edge="1">
          <mxGeometry width="50" height="50" relative="1" as="geometry">
            <mxPoint x="680" y="480" as="sourcePoint" />
            <mxPoint x="730" y="430" as="targetPoint" />
          </mxGeometry>
        </mxCell>
        <mxCell id="HdDQlEBCYO6yjAjvUNcA-60" style="edgeStyle=orthogonalEdgeStyle;rounded=0;orthogonalLoop=1;jettySize=auto;html=1;entryX=0.5;entryY=0;entryDx=0;entryDy=0;strokeColor=#FF3333;" parent="1" source="HdDQlEBCYO6yjAjvUNcA-58" target="hn9e4UP-f08yugh81iEx-45" edge="1">
          <mxGeometry relative="1" as="geometry" />
        </mxCell>
        <mxCell id="HdDQlEBCYO6yjAjvUNcA-58" value="Checkout" style="rounded=1;whiteSpace=wrap;html=1;fillColor=#ffffc0;strokeColor=#ff0000;fontColor=#000000;" parent="1" vertex="1">
          <mxGeometry x="990" y="640" width="90" height="30" as="geometry" />
        </mxCell>
        <mxCell id="HdDQlEBCYO6yjAjvUNcA-61" value="Done shopping" style="text;html=1;align=center;verticalAlign=middle;resizable=0;points=[];autosize=1;strokeColor=none;fillColor=none;" parent="1" vertex="1">
          <mxGeometry x="1030" y="595" width="100" height="30" as="geometry" />
        </mxCell>
      </root>
    </mxGraphModel>
  </diagram>
</mxfile>
